<svg version="1.1" id="Layer_1" xmlns="http://www.w3.org/2000/svg" xmlns:xlink="http://www.w3.org/1999/xlink" x="0px" y="0px"
	 width="100%" viewBox="0 0 272 92" enable-background="new 0 0 272 92" xml:space="preserve">
<path fill="#000000" opacity="1.000000" stroke="none" 
	d="
M47.000000,0.999999 
	C122.281471,1.000000 197.562943,1.000000 272.922211,1.000000 
	C272.922211,31.593529 272.922211,62.187298 272.922211,92.890533 
	C182.333420,92.890533 91.666733,92.890533 1.000000,92.890533 
	C1.000000,77.916786 1.000000,62.927052 1.267654,47.136787 
	C2.714220,48.410374 3.838240,50.517998 5.080823,52.553238 
	C14.095929,67.319145 27.069326,72.995659 44.152115,70.058159 
	C60.787159,67.197647 72.300156,49.997288 68.246826,33.238617 
	C57.625610,33.238617 47.025421,33.238617 36.279015,33.238617 
	C36.279015,36.201588 36.279015,38.921070 36.279015,41.998581 
	C40.017254,41.998581 43.481266,41.998581 46.945278,41.998581 
	C50.557491,41.998581 54.169704,41.998581 57.829742,41.998581 
	C56.550892,52.964138 49.844189,58.644997 41.320747,59.822422 
	C28.921206,61.535290 19.153574,57.544243 13.610084,44.172604 
	C10.166310,35.865761 13.052415,24.059429 20.126167,17.970526 
	C30.831684,8.755491 41.886990,9.598663 52.728798,17.531719 
	C55.130535,15.181867 57.457645,12.905032 60.510403,9.918226 
	C56.403191,7.579200 52.349777,5.323379 48.367542,2.948235 
	C47.745605,2.577290 47.447727,1.663026 47.000000,0.999999 
M210.179672,76.370781 
	C210.452896,73.959877 210.949402,71.550186 210.962494,69.137871 
	C211.038025,55.213554 210.999344,41.288616 210.999344,27.133263 
	C207.528397,27.133263 204.571426,27.084192 201.617523,27.158041 
	C200.477097,27.186552 199.150360,27.970318 198.237320,27.599764 
	C190.285126,24.372438 182.683685,24.930378 176.150070,30.477337 
	C168.821823,36.698925 166.383987,44.875504 168.772003,54.305519 
	C170.563980,61.381855 174.954849,66.238228 181.602600,69.155434 
	C188.285553,72.088089 194.688507,71.610878 200.833954,67.320084 
	C201.113846,74.362083 199.015213,78.290672 194.285049,80.009674 
	C187.963943,82.306847 184.666275,80.880951 178.282822,73.002342 
	C175.575165,74.224831 172.825119,75.466476 170.082993,76.704536 
	C171.617508,85.437752 180.765778,90.497177 188.842804,90.903702 
	C198.076019,91.368408 207.833298,86.601814 210.179672,76.370781 
M232.879089,60.455875 
	C240.493530,73.955750 262.732880,74.906960 271.028778,60.392235 
	C269.377441,59.129997 267.740417,57.792908 266.014343,56.582771 
	C264.188599,55.302727 262.687347,54.666874 260.543365,56.785522 
	C253.779785,63.469158 248.636703,62.956161 242.162552,55.205395 
	C246.606659,53.425087 250.975998,51.734776 255.296356,49.927441 
	C259.805664,48.041065 264.329163,46.165833 268.704773,43.999577 
	C269.719055,43.497437 271.019043,41.511600 270.734741,40.752720 
	C265.450012,26.646053 253.688705,21.958683 239.938385,28.549158 
	C229.806259,33.405445 227.107941,48.441349 232.879089,60.455875 
M114.121544,36.546257 
	C108.276344,27.326344 97.222389,22.559902 87.524818,26.307283 
	C76.208984,30.680002 70.530251,38.426117 72.084991,52.355995 
	C73.239929,62.703789 82.692093,70.761589 93.414833,70.985954 
	C112.149429,71.377960 122.223206,54.102848 114.121544,36.546257 
M129.790924,29.035448 
	C115.395844,38.401199 117.443672,60.596771 130.021164,67.523430 
	C139.202209,72.579620 148.653183,72.819946 158.087311,65.197853 
	C164.615128,59.923851 166.454529,51.441891 164.198395,41.505768 
	C161.102417,27.870892 143.373581,21.193228 129.790924,29.035448 
M217.000000,23.500490 
	C217.000000,38.572548 217.000000,53.644604 217.000000,68.679657 
	C220.372177,68.679657 222.959396,68.679657 225.609802,68.679657 
	C225.609802,47.002708 225.609802,25.646898 225.609802,4.320147 
	C222.628174,4.320147 220.040970,4.320147 217.000000,4.320147 
	C217.000000,10.588067 217.000000,16.544416 217.000000,23.500490 
z"/>
<path fill="#4285F4" opacity="1.000000" stroke="none" 
	d="
M46.531471,0.999999 
	C47.447727,1.663026 47.745605,2.577290 48.367542,2.948235 
	C52.349777,5.323379 56.403191,7.579200 60.510403,9.918226 
	C57.457645,12.905032 55.130535,15.181867 52.728798,17.531719 
	C41.886990,9.598663 30.831684,8.755491 20.126167,17.970526 
	C13.052415,24.059429 10.166310,35.865761 13.610084,44.172604 
	C19.153574,57.544243 28.921206,61.535290 41.320747,59.822422 
	C49.844189,58.644997 56.550892,52.964138 57.829742,41.998581 
	C54.169704,41.998581 50.557491,41.998581 46.945278,41.998581 
	C43.481266,41.998581 40.017254,41.998581 36.279015,41.998581 
	C36.279015,38.921070 36.279015,36.201588 36.279015,33.238617 
	C47.025421,33.238617 57.625610,33.238617 68.246826,33.238617 
	C72.300156,49.997288 60.787159,67.197647 44.152115,70.058159 
	C27.069326,72.995659 14.095929,67.319145 5.080823,52.553238 
	C3.838240,50.517998 2.714220,48.410374 1.267654,46.668129 
	C1.000000,39.979053 1.000000,32.958103 1.278013,25.799398 
	C1.815108,25.456266 2.212914,25.303358 2.313290,25.037958 
	C6.460885,14.071576 13.829435,6.457664 25.148321,2.852614 
	C25.584639,2.713647 25.722870,1.638769 26.000000,1.000000 
	C32.687645,1.000000 39.375290,1.000000 46.531471,0.999999 
z"/>
<path fill="#000000" opacity="1.000000" stroke="none" 
	d="
M25.531321,1.000000 
	C25.722870,1.638769 25.584639,2.713647 25.148321,2.852614 
	C13.829435,6.457664 6.460885,14.071576 2.313290,25.037958 
	C2.212914,25.303358 1.815108,25.456266 1.278013,25.330820 
	C1.000000,17.072140 1.000000,9.144280 1.000000,1.000000 
	C9.019587,1.000000 17.041115,1.000000 25.531321,1.000000 
z"/>
<path fill="#4285F4" opacity="1.000000" stroke="none" 
	d="
M210.100464,76.783813 
	C207.833298,86.601814 198.076019,91.368408 188.842804,90.903702 
	C180.765778,90.497177 171.617508,85.437752 170.082993,76.704536 
	C172.825119,75.466476 175.575165,74.224831 178.282822,73.002342 
	C184.666275,80.880951 187.963943,82.306847 194.285049,80.009674 
	C199.015213,78.290672 201.113846,74.362083 200.833954,67.320084 
	C194.688507,71.610878 188.285553,72.088089 181.602600,69.155434 
	C174.954849,66.238228 170.563980,61.381855 168.772003,54.305519 
	C166.383987,44.875504 168.821823,36.698925 176.150070,30.477337 
	C182.683685,24.930378 190.285126,24.372438 198.237320,27.599764 
	C199.150360,27.970318 200.477097,27.186552 201.617523,27.158041 
	C204.571426,27.084192 207.528397,27.133263 210.999344,27.133263 
	C210.999344,41.288616 211.038025,55.213554 210.962494,69.137871 
	C210.949402,71.550186 210.452896,73.959877 210.100464,76.783813 
M200.146088,41.605564 
	C196.799225,36.192280 193.153427,34.945255 188.304123,35.787769 
	C181.676697,36.939209 177.638199,44.437386 179.126343,51.888908 
	C180.043472,56.481163 183.255264,59.707134 187.854691,60.829659 
	C191.960754,61.831772 195.583786,60.563736 198.389862,57.150948 
	C202.147903,52.580345 202.980743,47.645000 200.146088,41.605564 
z"/>
<path fill="#EA4335" opacity="1.000000" stroke="none" 
	d="
M232.630386,60.162926 
	C227.107941,48.441349 229.806259,33.405445 239.938385,28.549158 
	C253.688705,21.958683 265.450012,26.646053 270.734741,40.752720 
	C271.019043,41.511600 269.719055,43.497437 268.704773,43.999577 
	C264.329163,46.165833 259.805664,48.041065 255.296356,49.927441 
	C250.975998,51.734776 246.606659,53.425087 242.162552,55.205395 
	C248.636703,62.956161 253.779785,63.469158 260.543365,56.785522 
	C262.687347,54.666874 264.188599,55.302727 266.014343,56.582771 
	C267.740417,57.792908 269.377441,59.129997 271.028778,60.392235 
	C262.732880,74.906960 240.493530,73.955750 232.630386,60.162926 
M251.398514,41.920807 
	C253.695908,40.759182 255.993286,39.597557 258.877838,38.139050 
	C249.290024,32.933571 242.466843,36.238781 240.671234,46.419178 
	C244.192764,44.886200 247.418472,43.481995 251.398514,41.920807 
z"/>
<path fill="#EA4335" opacity="1.000000" stroke="none" 
	d="
M114.370186,36.839027 
	C122.223206,54.102848 112.149429,71.377960 93.414833,70.985954 
	C82.692093,70.761589 73.239929,62.703789 72.084991,52.355995 
	C70.530251,38.426117 76.208984,30.680002 87.524818,26.307283 
	C97.222389,22.559902 108.276344,27.326344 114.370186,36.839027 
M83.000366,45.877136 
	C82.998230,55.460945 86.372841,60.409286 93.310318,60.995094 
	C99.324928,61.502968 105.198273,56.973804 105.984070,51.221874 
	C107.050926,43.412682 102.679214,36.430168 95.857239,35.047279 
	C91.093681,34.081661 84.982063,38.828022 83.000366,45.877136 
z"/>
<path fill="#FBBC05" opacity="1.000000" stroke="none" 
	d="
M130.166962,28.970156 
	C143.373581,21.193228 161.102417,27.870892 164.198395,41.505768 
	C166.454529,51.441891 164.615128,59.923851 158.087311,65.197853 
	C148.653183,72.819946 139.202209,72.579620 130.021164,67.523430 
	C117.443672,60.596771 115.395844,38.401199 130.166962,28.970156 
M153.995880,48.438084 
	C154.726715,42.950954 151.898117,39.716564 147.551483,36.788570 
	C143.525940,34.076874 140.174667,35.034351 136.674637,37.125999 
	C131.448456,40.249207 129.210342,46.975178 131.316483,52.757195 
	C133.341034,58.315189 138.784134,62.060329 144.225342,60.897732 
	C149.182404,59.838581 153.932159,56.433083 153.995880,48.438084 
z"/>
<path fill="#34A853" opacity="1.000000" stroke="none" 
	d="
M217.000000,23.000629 
	C217.000000,16.544416 217.000000,10.588067 217.000000,4.320147 
	C220.040970,4.320147 222.628174,4.320147 225.609802,4.320147 
	C225.609802,25.646898 225.609802,47.002708 225.609802,68.679657 
	C222.959396,68.679657 220.372177,68.679657 217.000000,68.679657 
	C217.000000,53.644604 217.000000,38.572548 217.000000,23.000629 
z"/>
<path fill="#000000" opacity="1.000000" stroke="none" 
	d="
M200.412933,41.896957 
	C202.980743,47.645000 202.147903,52.580345 198.389862,57.150948 
	C195.583786,60.563736 191.960754,61.831772 187.854691,60.829659 
	C183.255264,59.707134 180.043472,56.481163 179.126343,51.888908 
	C177.638199,44.437386 181.676697,36.939209 188.304123,35.787769 
	C193.153427,34.945255 196.799225,36.192280 200.412933,41.896957 
z"/>
<path fill="#000000" opacity="1.000000" stroke="none" 
	d="
M251.021362,41.999298 
	C247.418472,43.481995 244.192764,44.886200 240.671234,46.419178 
	C242.466843,36.238781 249.290024,32.933571 258.877838,38.139050 
	C255.993286,39.597557 253.695908,40.759182 251.021362,41.999298 
z"/>
<path fill="#000000" opacity="1.000000" stroke="none" 
	d="
M83.003090,45.452503 
	C84.982063,38.828022 91.093681,34.081661 95.857239,35.047279 
	C102.679214,36.430168 107.050926,43.412682 105.984070,51.221874 
	C105.198273,56.973804 99.324928,61.502968 93.310318,60.995094 
	C86.372841,60.409286 82.998230,55.460945 83.003090,45.452503 
z"/>
<path fill="#000000" opacity="1.000000" stroke="none" 
	d="
M153.995712,48.871742 
	C153.932159,56.433083 149.182404,59.838581 144.225342,60.897732 
	C138.784134,62.060329 133.341034,58.315189 131.316483,52.757195 
	C129.210342,46.975178 131.448456,40.249207 136.674637,37.125999 
	C140.174667,35.034351 143.525940,34.076874 147.551483,36.788570 
	C151.898117,39.716564 154.726715,42.950954 153.995712,48.871742 
z"/>
</svg>